<svg xmlns="http://www.w3.org/2000/svg" viewBox="0 0 100 100">
  <!-- Curly hair - fluffy afro style -->
  <circle cx="50" cy="18" r="20" fill="#1a1a1a"/>
  <circle cx="30" cy="22" r="16" fill="#1a1a1a"/>
  <circle cx="70" cy="22" r="16" fill="#1a1a1a"/>
  <circle cx="22" cy="34" r="12" fill="#1a1a1a"/>
  <circle cx="78" cy="34" r="12" fill="#1a1a1a"/>
  <!-- Extra curl fluff -->
  <circle cx="50" cy="8" r="10" fill="#1a1a1a"/>
  <circle cx="38" cy="12" r="8" fill="#1a1a1a"/>
  <circle cx="62" cy="12" r="8" fill="#1a1a1a"/>
  <!-- Hair shine highlights -->
  <circle cx="42" cy="16" r="4" fill="#333" opacity="0.3"/>
  <circle cx="58" cy="14" r="3" fill="#333" opacity="0.3"/>
  <!-- Head -->
  <circle cx="50" cy="50" r="32" fill="#DEB887"/>
  <!-- Eyes -->
  <circle cx="40" cy="48" r="5" fill="#333"/>
  <circle cx="60" cy="48" r="5" fill="#333"/>
  <!-- Eye highlights - sparkly -->
  <circle cx="42" cy="46" r="2" fill="#fff"/>
  <circle cx="62" cy="46" r="2" fill="#fff"/>
  <circle cx="38" cy="49" r="0.8" fill="#fff" opacity="0.6"/>
  <!-- Eyebrows - friendly -->
  <path d="M 34 40 Q 40 38 46 41" stroke="#1a1a1a" stroke-width="2" fill="none" stroke-linecap="round"/>
  <path d="M 54 41 Q 60 38 66 40" stroke="#1a1a1a" stroke-width="2" fill="none" stroke-linecap="round"/>
  <!-- Nose hint -->
  <ellipse cx="50" cy="54" rx="2" ry="1.5" fill="#C9A87C" opacity="0.6"/>
  <!-- Warm smile -->
  <path d="M 42 62 Q 50 70 58 62" stroke="#333" stroke-width="3" fill="none" stroke-linecap="round"/>
  <!-- Cheeks -->
  <circle cx="32" cy="56" r="6" fill="#FFB6C1" opacity="0.35"/>
  <circle cx="68" cy="56" r="6" fill="#FFB6C1" opacity="0.35"/>
</svg>
