<svg xmlns="http://www.w3.org/2000/svg" viewBox="0 0 100 100">
  <!-- Head -->
  <circle cx="50" cy="50" r="32" fill="#D2A679"/>
  <!-- Wavy brown hair - swoopy -->
  <path d="M 22 34 Q 30 14 50 12 Q 70 14 78 34" fill="#4A3728"/>
  <ellipse cx="50" cy="22" rx="28" ry="14" fill="#4A3728"/>
  <ellipse cx="28" cy="26" rx="12" ry="10" fill="#4A3728"/>
  <ellipse cx="72" cy="26" rx="12" ry="10" fill="#4A3728"/>
  <!-- Wavy tuft -->
  <ellipse cx="56" cy="14" rx="8" ry="10" fill="#4A3728"/>
  <!-- Hair shine -->
  <ellipse cx="42" cy="20" rx="10" ry="4" fill="#5D4A35" opacity="0.4"/>
  <!-- Eyes -->
  <circle cx="40" cy="48" r="5" fill="#333"/>
  <circle cx="60" cy="48" r="5" fill="#333"/>
  <!-- Eye highlights - sparkly -->
  <circle cx="42" cy="46" r="2" fill="#fff"/>
  <circle cx="62" cy="46" r="2" fill="#fff"/>
  <!-- Eyebrows - relaxed -->
  <path d="M 34 40 Q 40 38 46 41" stroke="#4A3728" stroke-width="2" fill="none" stroke-linecap="round"/>
  <path d="M 54 41 Q 60 38 66 40" stroke="#4A3728" stroke-width="2" fill="none" stroke-linecap="round"/>
  <!-- Nose hint -->
  <ellipse cx="50" cy="54" rx="2" ry="1.5" fill="#B8956A" opacity="0.6"/>
  <!-- Chill smile -->
  <path d="M 43 62 Q 50 68 57 62" stroke="#333" stroke-width="3" fill="none" stroke-linecap="round"/>
  <!-- Cheeks -->
  <circle cx="32" cy="56" r="6" fill="#FFB6C1" opacity="0.35"/>
  <circle cx="68" cy="56" r="6" fill="#FFB6C1" opacity="0.35"/>
</svg>
