<svg xmlns="http://www.w3.org/2000/svg" viewBox="0 0 100 100">
  <!-- Ponytail - bouncy with wave -->
  <ellipse cx="80" cy="50" rx="15" ry="30" fill="#8B4513"/>
  <ellipse cx="84" cy="62" rx="10" ry="18" fill="#8B4513"/>
  <!-- Ponytail shine -->
  <ellipse cx="78" cy="48" rx="4" ry="10" fill="#A0522D" opacity="0.35"/>
  <!-- Hair tie - cute with shine -->
  <circle cx="72" cy="32" r="6" fill="#E91E63"/>
  <circle cx="70" cy="30" r="1.5" fill="#F48FB1" opacity="0.6"/>
  <!-- Head -->
  <circle cx="50" cy="50" r="32" fill="#FFDAB9"/>
  <!-- Hair top - sleek -->
  <ellipse cx="50" cy="24" rx="30" ry="16" fill="#8B4513"/>
  <!-- Hair shine -->
  <ellipse cx="45" cy="22" rx="10" ry="4" fill="#A0522D" opacity="0.4"/>
  <!-- Eyes -->
  <circle cx="40" cy="48" r="5" fill="#333"/>
  <circle cx="60" cy="48" r="5" fill="#333"/>
  <!-- Eye highlights - sparkly -->
  <circle cx="42" cy="46" r="2.5" fill="#fff"/>
  <circle cx="62" cy="46" r="2.5" fill="#fff"/>
  <circle cx="38" cy="49" r="1" fill="#fff" opacity="0.5"/>
  <!-- Eyebrows -->
  <path d="M 34 40 Q 40 37 46 40" stroke="#8B4513" stroke-width="1.5" fill="none" stroke-linecap="round"/>
  <path d="M 54 40 Q 60 37 66 40" stroke="#8B4513" stroke-width="1.5" fill="none" stroke-linecap="round"/>
  <!-- Nose hint -->
  <ellipse cx="50" cy="54" rx="2" ry="1.5" fill="#E8C4A0" opacity="0.6"/>
  <!-- Friendly smile -->
  <path d="M 42 62 Q 50 70 58 62" stroke="#333" stroke-width="3" fill="none" stroke-linecap="round"/>
  <!-- Cheeks -->
  <circle cx="32" cy="56" r="6" fill="#FFB6C1" opacity="0.5"/>
  <circle cx="68" cy="56" r="6" fill="#FFB6C1" opacity="0.5"/>
</svg>
