<svg xmlns="http://www.w3.org/2000/svg" viewBox="0 0 100 100">
  <!-- Head -->
  <circle cx="50" cy="50" r="32" fill="#FFE4C4"/>
  <!-- Messy red hair - wild and tousled -->
  <ellipse cx="50" cy="20" rx="26" ry="14" fill="#D2691E"/>
  <ellipse cx="32" cy="14" rx="16" ry="14" fill="#D2691E"/>
  <ellipse cx="68" cy="14" rx="16" ry="14" fill="#D2691E"/>
  <ellipse cx="50" cy="10" rx="18" ry="14" fill="#D2691E"/>
  <ellipse cx="22" cy="24" rx="10" ry="8" fill="#D2691E"/>
  <ellipse cx="78" cy="24" rx="10" ry="8" fill="#D2691E"/>
  <!-- Extra messy tufts -->
  <ellipse cx="40" cy="8" rx="8" ry="10" fill="#D2691E"/>
  <ellipse cx="60" cy="6" rx="6" ry="8" fill="#D2691E"/>
  <!-- Hair shine -->
  <ellipse cx="45" cy="16" rx="8" ry="4" fill="#E8853A" opacity="0.4"/>
  <!-- Freckles - scattered across face -->
  <circle cx="34" cy="52" r="2" fill="#D2691E" opacity="0.5"/>
  <circle cx="38" cy="56" r="1.5" fill="#D2691E" opacity="0.5"/>
  <circle cx="62" cy="56" r="1.5" fill="#D2691E" opacity="0.5"/>
  <circle cx="66" cy="52" r="2" fill="#D2691E" opacity="0.5"/>
  <!-- Extra freckles on nose -->
  <circle cx="48" cy="54" r="1.2" fill="#D2691E" opacity="0.4"/>
  <circle cx="52" cy="55" r="1" fill="#D2691E" opacity="0.4"/>
  <circle cx="50" cy="52" r="1" fill="#D2691E" opacity="0.35"/>
  <!-- Eyes - mischievous -->
  <circle cx="40" cy="48" r="5" fill="#333"/>
  <circle cx="60" cy="48" r="5" fill="#333"/>
  <!-- Eye highlights -->
  <circle cx="42" cy="46" r="2" fill="#fff"/>
  <circle cx="62" cy="46" r="2" fill="#fff"/>
  <!-- Eyebrows - playful -->
  <path d="M 34 40 Q 40 37 46 40" stroke="#D2691E" stroke-width="2" fill="none" stroke-linecap="round"/>
  <path d="M 54 40 Q 60 37 66 40" stroke="#D2691E" stroke-width="2" fill="none" stroke-linecap="round"/>
  <!-- Nose hint -->
  <ellipse cx="50" cy="54" rx="2" ry="1.5" fill="#E8C4A0" opacity="0.6"/>
  <!-- Cheeky grin -->
  <path d="M 40 60 Q 50 72 60 60" stroke="#333" stroke-width="3" fill="none" stroke-linecap="round"/>
  <!-- Cheeks -->
  <circle cx="32" cy="56" r="6" fill="#FFB6C1" opacity="0.5"/>
  <circle cx="68" cy="56" r="6" fill="#FFB6C1" opacity="0.5"/>
</svg>
