<svg xmlns="http://www.w3.org/2000/svg" viewBox="0 0 100 100">
  <!-- Pigtails - bouncy with wave -->
  <ellipse cx="18" cy="50" rx="16" ry="28" fill="#FF69B4"/>
  <ellipse cx="82" cy="50" rx="16" ry="28" fill="#FF69B4"/>
  <!-- Pigtail curls at bottom -->
  <ellipse cx="14" cy="72" rx="12" ry="14" fill="#FF69B4"/>
  <ellipse cx="86" cy="72" rx="12" ry="14" fill="#FF69B4"/>
  <!-- Pigtail shine -->
  <ellipse cx="16" cy="46" rx="4" ry="10" fill="#FF8DC7" opacity="0.4"/>
  <ellipse cx="80" cy="46" rx="4" ry="10" fill="#FF8DC7" opacity="0.4"/>
  <!-- Hair ties - cute bows with detail -->
  <circle cx="28" cy="32" r="6" fill="#9C27B0"/>
  <circle cx="72" cy="32" r="6" fill="#9C27B0"/>
  <!-- Bow highlights -->
  <circle cx="26" cy="30" r="1.5" fill="#BA68C8" opacity="0.6"/>
  <circle cx="70" cy="30" r="1.5" fill="#BA68C8" opacity="0.6"/>
  <!-- Bow ribbon tails -->
  <ellipse cx="24" cy="38" rx="3" ry="5" fill="#9C27B0"/>
  <ellipse cx="76" cy="38" rx="3" ry="5" fill="#9C27B0"/>
  <!-- Head -->
  <circle cx="50" cy="50" r="32" fill="#FFDAB9"/>
  <!-- Hair top - with cute bangs -->
  <ellipse cx="50" cy="24" rx="30" ry="16" fill="#FF69B4"/>
  <!-- Hair shine -->
  <ellipse cx="42" cy="22" rx="10" ry="5" fill="#FF8DC7" opacity="0.4"/>
  <!-- Eyes - big and cute -->
  <circle cx="40" cy="48" r="6" fill="#333"/>
  <circle cx="60" cy="48" r="6" fill="#333"/>
  <!-- Eye highlights - extra sparkly -->
  <circle cx="42" cy="46" r="2.5" fill="#fff"/>
  <circle cx="62" cy="46" r="2.5" fill="#fff"/>
  <circle cx="38" cy="49" r="1" fill="#fff" opacity="0.5"/>
  <circle cx="58" cy="49" r="0.8" fill="#fff" opacity="0.4"/>
  <!-- Eyebrows -->
  <path d="M 34 40 Q 40 37 46 40" stroke="#FF69B4" stroke-width="1.5" fill="none" stroke-linecap="round"/>
  <path d="M 54 40 Q 60 37 66 40" stroke="#FF69B4" stroke-width="1.5" fill="none" stroke-linecap="round"/>
  <!-- Nose hint -->
  <ellipse cx="50" cy="54" rx="2" ry="1.5" fill="#E8C4A0" opacity="0.6"/>
  <!-- Super happy smile -->
  <path d="M 38 60 Q 50 74 62 60" stroke="#333" stroke-width="3" fill="none" stroke-linecap="round"/>
  <!-- Rosy cheeks -->
  <circle cx="32" cy="56" r="6" fill="#FFB6C1" opacity="0.55"/>
  <circle cx="68" cy="56" r="6" fill="#FFB6C1" opacity="0.55"/>
</svg>
