<svg xmlns="http://www.w3.org/2000/svg" viewBox="0 0 100 100">
  <!-- Bob hair - shorter, chin length -->
  <ellipse cx="50" cy="44" rx="38" ry="28" fill="#4A3728"/>
  <!-- Side hair pieces -->
  <ellipse cx="18" cy="48" rx="10" ry="18" fill="#4A3728"/>
  <ellipse cx="82" cy="48" rx="10" ry="18" fill="#4A3728"/>
  <!-- Head -->
  <circle cx="50" cy="50" r="30" fill="#DEB887"/>
  <!-- Hair top - volume -->
  <ellipse cx="50" cy="24" rx="32" ry="18" fill="#4A3728"/>
  <!-- Hair shine -->
  <ellipse cx="40" cy="22" rx="12" ry="5" fill="#5D4A35" opacity="0.4"/>
  <ellipse cx="62" cy="20" rx="6" ry="3" fill="#5D4A35" opacity="0.3"/>
  <!-- Eyes -->
  <circle cx="40" cy="48" r="5" fill="#333"/>
  <circle cx="60" cy="48" r="5" fill="#333"/>
  <!-- Eye highlights - sparkly -->
  <circle cx="42" cy="46" r="2.5" fill="#fff"/>
  <circle cx="62" cy="46" r="2.5" fill="#fff"/>
  <circle cx="38" cy="49" r="1" fill="#fff" opacity="0.5"/>
  <!-- Eyebrows - styled -->
  <path d="M 34 40 Q 40 37 46 40" stroke="#4A3728" stroke-width="1.5" fill="none" stroke-linecap="round"/>
  <path d="M 54 40 Q 60 37 66 40" stroke="#4A3728" stroke-width="1.5" fill="none" stroke-linecap="round"/>
  <!-- Nose hint -->
  <ellipse cx="50" cy="54" rx="2" ry="1.5" fill="#C9A87C" opacity="0.6"/>
  <!-- Confident smile -->
  <path d="M 42 62 Q 50 70 58 62" stroke="#333" stroke-width="3" fill="none" stroke-linecap="round"/>
  <!-- Cheeks -->
  <circle cx="32" cy="54" r="6" fill="#FFB6C1" opacity="0.4"/>
  <circle cx="68" cy="54" r="6" fill="#FFB6C1" opacity="0.4"/>
</svg>
